<svg xmlns="http://www.w3.org/2000/svg" viewBox="0 0 24 24" fill="none">
  <!-- Gamepad body -->
  <path d="M6 12C6 8.68629 8.68629 6 12 6C15.3137 6 18 8.68629 18 12C18 15.3137 15.3137 18 12 18C8.68629 18 6 15.3137 6 12Z" fill="#a855f7" stroke="#ec4899" stroke-width="1.5"/>
  
  <!-- Left handle -->
  <rect x="2" y="10" width="6" height="4" rx="2" fill="#a855f7" stroke="#ec4899" stroke-width="1.5"/>
  
  <!-- Right handle -->
  <rect x="16" y="10" width="6" height="4" rx="2" fill="#a855f7" stroke="#ec4899" stroke-width="1.5"/>
  
  <!-- D-pad left -->
  <rect x="8" y="10.5" width="1.5" height="3" rx="0.5" fill="#ffffff"/>
  
  <!-- D-pad right -->
  <rect x="14.5" y="10.5" width="1.5" height="3" rx="0.5" fill="#ffffff"/>
  
  <!-- D-pad up -->
  <rect x="11.25" y="8" width="1.5" height="3" rx="0.5" fill="#ffffff"/>
  
  <!-- D-pad down -->
  <rect x="11.25" y="13" width="1.5" height="3" rx="0.5" fill="#ffffff"/>
  
  <!-- Action buttons -->
  <circle cx="16" cy="10" r="1.5" fill="#ec4899"/>
  <circle cx="18.5" cy="10" r="1.5" fill="#ec4899"/>
  <circle cx="17.25" cy="8.5" r="1.5" fill="#ec4899"/>
  <circle cx="17.25" cy="11.5" r="1.5" fill="#ec4899"/>
</svg>

